<svg width="32" height="32" viewBox="0 0 32 32" fill="none" xmlns="http://www.w3.org/2000/svg">
<rect width="32" height="32" rx="16" fill="white"/>
<path fill-rule="evenodd" clip-rule="evenodd" d="M16.5005 4.98572C13.1031 4.98572 10.349 7.73985 10.349 11.1372V11.8682C9.72552 11.9728 9.25047 12.515 9.25047 13.1682V14.739C9.25047 15.4022 9.74036 15.9511 10.3781 16.0435C10.5913 18.2383 11.9579 20.0953 13.8641 21.0009V23.0532C9.20022 23.3714 5.51562 27.2554 5.51562 32H27.4853C27.4853 27.2554 23.8007 23.3714 19.1368 23.0532V21.0009C21.0431 20.0953 22.4097 18.2383 22.6229 16.0435C23.2606 15.9511 23.7505 15.4023 23.7505 14.739V13.1682C23.7505 12.515 23.2754 11.9728 22.652 11.8682V11.1372C22.652 7.73985 19.8979 4.98572 16.5005 4.98572Z" fill="#D0C6AC"/>
<mask id="mask0_15717_5222" style="mask-type:luminance" maskUnits="userSpaceOnUse" x="5" y="4" width="23" height="28">
<path fill-rule="evenodd" clip-rule="evenodd" d="M16.5005 4.98572C13.1031 4.98572 10.349 7.73985 10.349 11.1372V11.8682C9.72552 11.9728 9.25047 12.515 9.25047 13.1682V14.739C9.25047 15.4022 9.74036 15.9511 10.3781 16.0435C10.5913 18.2383 11.9579 20.0953 13.8641 21.0009V23.0532C9.20022 23.3714 5.51562 27.2554 5.51562 32H27.4853C27.4853 27.2554 23.8007 23.3714 19.1368 23.0532V21.0009C21.0431 20.0953 22.4097 18.2383 22.6229 16.0435C23.2606 15.9511 23.7505 15.4023 23.7505 14.739V13.1682C23.7505 12.515 23.2754 11.9728 22.652 11.8682V11.1372C22.652 7.73985 19.8979 4.98572 16.5005 4.98572Z" fill="white"/>
</mask>
<g mask="url(#mask0_15717_5222)">
<rect width="29" height="27.0143" transform="translate(2 4.98572)" fill="#FFCCD7"/>
<rect x="2" y="4.98572" width="29" height="27.0143" fill="#FFCCD7"/>
<path fill-rule="evenodd" clip-rule="evenodd" d="M10.3496 15.4414V16.3271C10.3496 19.7245 13.1037 22.4786 16.5011 22.4786C19.8985 22.4786 22.6526 19.7245 22.6526 16.3271V15.4414C22.6526 18.8388 19.8985 21.5929 16.5011 21.5929C13.1037 21.5929 10.3496 18.8388 10.3496 15.4414Z" fill="black" fill-opacity="0.1"/>
</g>
<path fill-rule="evenodd" clip-rule="evenodd" d="M16.5554 27.1094C19.5584 27.1094 21.9929 25.6481 21.9929 23.8455C21.9929 23.8078 21.9918 23.7702 21.9897 23.7328C25.218 25.0881 27.4853 28.2792 27.4853 31.9999H5.51562C5.51562 28.236 7.83596 25.014 11.1243 23.6863C11.12 23.739 11.1179 23.7921 11.1179 23.8455C11.1179 25.6481 13.5523 27.1094 16.5554 27.1094Z" fill="#2BB46A" fill-opacity="0.92053"/>
<mask id="mask1_15717_5222" style="mask-type:luminance" maskUnits="userSpaceOnUse" x="5" y="23" width="23" height="9">
<path fill-rule="evenodd" clip-rule="evenodd" d="M16.5554 27.1094C19.5584 27.1094 21.9929 25.6481 21.9929 23.8455C21.9929 23.8078 21.9918 23.7702 21.9897 23.7328C25.218 25.0881 27.4853 28.2792 27.4853 31.9999H5.51562C5.51562 28.236 7.83596 25.014 11.1243 23.6863C11.12 23.739 11.1179 23.7921 11.1179 23.8455C11.1179 25.6481 13.5523 27.1094 16.5554 27.1094Z" fill="white"/>
</mask>
<g mask="url(#mask1_15717_5222)">
<rect x="2" y="19.8214" width="29" height="12.1786" fill="#2BB46A" fill-opacity="0.92053"/>
</g>
<path fill-rule="evenodd" clip-rule="evenodd" d="M14.9609 17.4965C14.9609 18.3525 15.6495 19.0465 16.4988 19.0465C17.3482 19.0465 18.0367 18.3525 18.0367 17.4965" fill="#0C092A"/>
<g opacity="0.3">
<path fill-rule="evenodd" clip-rule="evenodd" d="M15.1816 15.3929C15.1816 15.8821 15.7718 16.2787 16.4998 16.2787C17.2278 16.2787 17.818 15.8821 17.818 15.3929" fill="#0C092A"/>
</g>
<ellipse cx="13.6435" cy="13.4001" rx="0.659091" ry="0.664286" fill="#0C092A"/>
<ellipse cx="19.3544" cy="13.4001" rx="0.659091" ry="0.664286" fill="#0C092A"/>
<path d="M12.0648 11.9783C12.4949 11.3684 13.6738 11.0264 14.6894 11.2778C14.8072 11.307 14.9262 11.2343 14.9551 11.1156C14.9841 10.9968 14.912 10.8769 14.7942 10.8477C13.6148 10.5558 12.2496 10.9518 11.7067 11.7218C11.6364 11.8215 11.6596 11.9597 11.7585 12.0306C11.8574 12.1014 11.9945 12.078 12.0648 11.9783Z" fill="#0C092A"/>
<path d="M20.9332 11.9783C20.5032 11.3684 19.3242 11.0264 18.3087 11.2778C18.1908 11.307 18.0718 11.2343 18.0429 11.1156C18.014 10.9968 18.086 10.8769 18.2039 10.8477C19.3833 10.5558 20.7485 10.9518 21.2914 11.7218C21.3617 11.8215 21.3385 11.9597 21.2396 12.0306C21.1407 12.1014 21.0035 12.078 20.9332 11.9783Z" fill="#0C092A"/>
<mask id="mask2_15717_5222" style="mask-type:luminance" maskUnits="userSpaceOnUse" x="2" y="1" width="29" height="31">
<rect x="2" y="1" width="29" height="31" fill="white"/>
</mask>
<g mask="url(#mask2_15717_5222)">
<path fill-rule="evenodd" clip-rule="evenodd" d="M6.28427 17.0536C6.21648 13.6396 9.39507 6.51302 10.5684 5.09643C11.4387 4.04562 13.8303 3.16454 16.5002 3.21429C19.1701 3.26404 21.6479 3.85778 22.5419 4.98572C23.8956 6.69378 26.7017 13.1873 26.7161 17.0536C26.7264 19.7993 25.6684 22.5516 24.1896 22.7C23.3546 22.7838 22.294 22.675 21.0195 22.5444L21.0195 22.5444L21.0194 22.5444L21.0194 22.5444L21.0193 22.5443L21.0191 22.5443L21.0188 22.5443C20.4357 22.4845 19.8079 22.4202 19.1365 22.3676V21.0009C21.2148 20.0136 22.6517 17.8953 22.6517 15.4413V12.2445C21.4974 11.6036 20.5147 10.8298 19.696 10.0435C20.0646 10.7344 20.4861 11.3618 20.9615 11.8359C17.602 10.8859 15.2797 8.94046 13.8879 7.41514C13.2481 8.64176 12.1022 10.4356 10.3486 11.8021V15.4413C10.3486 17.8953 11.7855 20.0136 13.8638 21.0009V22.4504C13.1001 22.5558 12.3904 22.6895 11.7372 22.8125L11.7371 22.8125L11.7371 22.8126L11.737 22.8126L11.7369 22.8126C10.5452 23.0371 9.54187 23.2261 8.74318 23.1429C7.18082 22.9802 6.33878 19.7988 6.28427 17.0536Z" fill="#E6E6E6"/>
<mask id="mask3_15717_5222" style="mask-type:luminance" maskUnits="userSpaceOnUse" x="6" y="3" width="21" height="21">
<path fill-rule="evenodd" clip-rule="evenodd" d="M6.28427 17.0536C6.21648 13.6396 9.39507 6.51302 10.5684 5.09643C11.4387 4.04562 13.8303 3.16454 16.5002 3.21429C19.1701 3.26404 21.6479 3.85778 22.5419 4.98572C23.8956 6.69378 26.7017 13.1873 26.7161 17.0536C26.7264 19.7993 25.6684 22.5516 24.1896 22.7C23.3546 22.7838 22.294 22.675 21.0195 22.5444L21.0195 22.5444L21.0194 22.5444L21.0194 22.5444L21.0193 22.5443L21.0191 22.5443L21.0188 22.5443C20.4357 22.4845 19.8079 22.4202 19.1365 22.3676V21.0009C21.2148 20.0136 22.6517 17.8953 22.6517 15.4413V12.2445C21.4974 11.6036 20.5147 10.8298 19.696 10.0435C20.0646 10.7344 20.4861 11.3618 20.9615 11.8359C17.602 10.8859 15.2797 8.94046 13.8879 7.41514C13.2481 8.64176 12.1022 10.4356 10.3486 11.8021V15.4413C10.3486 17.8953 11.7855 20.0136 13.8638 21.0009V22.4504C13.1001 22.5558 12.3904 22.6895 11.7372 22.8125L11.7371 22.8125L11.7371 22.8126L11.737 22.8126L11.7369 22.8126C10.5452 23.0371 9.54187 23.2261 8.74318 23.1429C7.18082 22.9802 6.33878 19.7988 6.28427 17.0536Z" fill="white"/>
</mask>
<g mask="url(#mask3_15717_5222)">
<rect x="1.89062" y="1" width="29.2197" height="31" fill="#0C092A"/>
</g>
</g>
</svg>
