<svg width="28" height="28" viewBox="0 0 28 28" fill="none" xmlns="http://www.w3.org/2000/svg">
<rect width="28" height="28" rx="14" fill="#E1F3D9"/>
<path d="M11.3326 11.3334H10.5172C9.65056 11.3334 9.2179 11.3334 8.91057 11.5101C8.6399 11.6654 8.4319 11.9101 8.32323 12.2027C8.1999 12.5354 8.27057 12.9627 8.41323 13.8161V13.8174L9.03523 17.5507C9.14123 18.1841 9.1939 18.5007 9.3519 18.7387C9.4919 18.9481 9.68723 19.1134 9.91656 19.2167C10.1766 19.3334 10.4979 19.3334 11.1399 19.3334H16.8586C17.5006 19.3334 17.8212 19.3334 18.0819 19.2167C18.3112 19.1134 18.5072 18.9481 18.6466 18.7387C18.8046 18.5007 18.8572 18.1841 18.9626 17.5507L19.5852 13.8174V13.8147C19.7279 12.9614 19.7986 12.5347 19.6752 12.2027C19.5667 11.9104 19.3591 11.6652 19.0886 11.5101C18.7812 11.3334 18.3479 11.3334 17.4812 11.3334H16.6659M11.3326 11.3334H16.6659M11.3326 11.3334C11.3326 10.6262 11.6135 9.94789 12.1136 9.4478C12.6137 8.9477 13.292 8.66675 13.9992 8.66675C14.7065 8.66675 15.3848 8.9477 15.8848 9.4478C16.3849 9.94789 16.6659 10.6262 16.6659 11.3334" stroke="#17A086" stroke-width="1.2" stroke-linecap="round" stroke-linejoin="round"/>
</svg>
