<svg width="28" height="28" viewBox="0 0 28 28" fill="none" xmlns="http://www.w3.org/2000/svg">
<rect width="28" height="28" rx="14" fill="#E1F3D9"/>
<path d="M17.938 15.1428C17.5868 15.1428 17.2435 15.2434 16.9515 15.4317C16.6595 15.6201 16.4319 15.8878 16.2975 16.2011C16.1631 16.5143 16.1279 16.859 16.1964 17.1915C16.265 17.5241 16.4341 17.8295 16.6824 18.0693C16.9308 18.309 17.2472 18.4723 17.5916 18.5385C17.9361 18.6046 18.2931 18.5707 18.6176 18.4409C18.942 18.3112 19.2194 18.0914 19.4145 17.8095C19.6096 17.5276 19.7137 17.1962 19.7137 16.8571C19.7122 16.4029 19.5247 15.9677 19.192 15.6465C18.8593 15.3253 18.4085 15.1442 17.938 15.1428ZM10.0609 15.1428C9.70966 15.1428 9.36634 15.2434 9.07433 15.4317C8.78232 15.6201 8.55472 15.8878 8.42032 16.2011C8.28593 16.5143 8.25076 16.859 8.31928 17.1915C8.38779 17.5241 8.55691 17.8295 8.80525 18.0693C9.05358 18.309 9.36998 18.4723 9.71444 18.5385C10.0589 18.6046 10.4159 18.5707 10.7404 18.4409C11.0649 18.3112 11.3422 18.0914 11.5373 17.8095C11.7324 17.5276 11.8366 17.1962 11.8366 16.8571C11.8351 16.4029 11.6475 15.9677 11.3148 15.6465C10.9821 15.3253 10.5313 15.1442 10.0609 15.1428Z" stroke="#17A086" stroke-width="1.2" stroke-miterlimit="10"/>
<path d="M14 17.25V14.5625L12 13.25L14.5 10.5L15.75 12.75H17.5" stroke="#17A086" stroke-width="1.2" stroke-linecap="round" stroke-linejoin="round"/>
<path d="M16.2836 9.42853C16.4344 9.42905 16.5837 9.39973 16.7231 9.34226C16.8624 9.28479 16.989 9.20031 17.0954 9.0937C17.2018 8.9871 17.2861 8.86048 17.3432 8.72118C17.4003 8.58188 17.4292 8.43265 17.4282 8.28212C17.4299 8.13235 17.4016 7.98375 17.3451 7.84501C17.2886 7.70627 17.2049 7.58017 17.099 7.4741C16.9931 7.36802 16.8671 7.28409 16.7283 7.22721C16.5895 7.17034 16.4408 7.14166 16.2908 7.14286C16.1405 7.14239 15.9915 7.17148 15.8525 7.22848C15.7134 7.28548 15.587 7.36927 15.4804 7.47506C15.265 7.68872 15.1435 7.97902 15.1426 8.28212C15.1416 8.58522 15.2613 8.87628 15.4753 9.09128C15.6893 9.30627 15.98 9.42758 16.2836 9.42853Z" fill="#17A086"/>
</svg>
