<svg width="28" height="28" viewBox="0 0 28 28" fill="none" xmlns="http://www.w3.org/2000/svg">
<rect width="28" height="28" rx="14" fill="#E1F3D9"/>
<path d="M12.001 20H16.001M14.001 8C13.2795 7.99983 12.5714 8.1948 11.9517 8.56426C11.3319 8.93373 10.8237 9.46393 10.4808 10.0987C10.1378 10.7335 9.97295 11.4492 10.0036 12.17C10.0343 12.8909 10.2593 13.59 10.655 14.1933C11.291 15.1613 11.6083 15.6453 11.6503 15.7173C12.017 16.3607 11.9496 16.134 11.9956 16.8733C12.001 16.956 12.001 17.082 12.001 17.3333C12.001 17.5101 12.0712 17.6797 12.1962 17.8047C12.3212 17.9298 12.4908 18 12.6676 18H15.3343C15.5111 18 15.6807 17.9298 15.8057 17.8047C15.9307 17.6797 16.001 17.5101 16.001 17.3333C16.001 17.082 16.001 16.956 16.0063 16.8733C16.053 16.1333 15.9843 16.3607 16.3516 15.7173C16.393 15.6453 16.7116 15.1613 17.347 14.1927C17.7424 13.5893 17.9673 12.8903 17.9979 12.1695C18.0285 11.4488 17.8636 10.7332 17.5206 10.0985C17.1777 9.46388 16.6695 8.93376 16.0499 8.56433C15.4303 8.1949 14.7223 7.99991 14.001 8Z" stroke="#17A086" stroke-width="1.2" stroke-linecap="round" stroke-linejoin="round"/>
</svg>
