<svg width="33" height="32" viewBox="0 0 33 32" fill="none" xmlns="http://www.w3.org/2000/svg">
<rect x="0.5" width="32" height="32" rx="16" fill="#17A086"/>
<path d="M14.826 12.6667H12.6335C11.8867 12.6667 11.5131 12.6667 11.2279 12.8121C10.977 12.9399 10.7732 13.1437 10.6453 13.3946C10.5 13.6798 10.5 14.0535 10.5 14.8002V18.5335C10.5 19.2803 10.5 19.6531 10.6453 19.9383C10.7732 20.1892 10.977 20.3937 11.2279 20.5216C11.5128 20.6667 11.886 20.6667 12.6313 20.6667H20.3687C21.114 20.6667 21.4867 20.6667 21.7716 20.5216C22.0225 20.3937 22.227 20.1892 22.3548 19.9383C22.5 19.6534 22.5 19.2808 22.5 18.5355V14.798C22.5 14.0527 22.5 13.6795 22.3548 13.3946C22.227 13.1437 22.0225 12.9399 21.7716 12.8121C21.4864 12.6667 21.1135 12.6667 20.3668 12.6667H18.1739M14.826 12.6667H14.8672M14.826 12.6667C14.8343 12.6668 14.8431 12.6668 14.8524 12.6667L14.8672 12.6667M14.826 12.6667C14.7552 12.6667 14.7156 12.6664 14.6842 12.6628C14.2925 12.619 14.0239 12.2461 14.1061 11.8606C14.1138 11.8248 14.1289 11.7794 14.1589 11.6895L14.1602 11.6857C14.1944 11.583 14.2115 11.5317 14.2304 11.4864C14.4239 11.0227 14.8621 10.7073 15.3633 10.6704C15.4122 10.6667 15.466 10.6667 15.5742 10.6667H17.4257C17.5339 10.6667 17.5882 10.6667 17.6371 10.6704C18.1382 10.7073 18.576 11.0227 18.7695 11.4864C18.7884 11.5317 18.8056 11.583 18.8398 11.6856C18.8707 11.7781 18.8861 11.8243 18.8938 11.8607C18.9761 12.2462 18.7079 12.619 18.3161 12.6628C18.2848 12.6664 18.2448 12.6667 18.1739 12.6667M14.8672 12.6667H18.1326M18.1326 12.6667H18.1739M18.1326 12.6667L18.1475 12.6667C18.1567 12.6668 18.1655 12.6668 18.1739 12.6667M16.5 18.6667C15.3954 18.6667 14.5 17.7713 14.5 16.6667C14.5 15.5622 15.3954 14.6667 16.5 14.6667C17.6046 14.6667 18.5 15.5622 18.5 16.6667C18.5 17.7713 17.6046 18.6667 16.5 18.6667Z" stroke="white" stroke-linecap="round" stroke-linejoin="round"/>
</svg>
