<svg width="25" height="24" viewBox="0 0 25 24" fill="none" xmlns="http://www.w3.org/2000/svg">
<path d="M2.98242 2H16.9824C18.8684 2 19.8104 2 20.3964 2.586C20.9824 3.172 20.9824 4.114 20.9824 6V12C20.9824 13.886 20.9824 14.828 20.3964 15.414C19.8104 16 18.8684 16 16.9824 16H9.98242M10.9824 6.5H16.9824M2.98242 17V13C2.98242 12.057 2.98242 11.586 3.27542 11.293C3.56842 11 4.03942 11 4.98242 11H6.98242M2.98242 17H6.98242M2.98242 17V22M6.98242 11V17M6.98242 11H12.9824M6.98242 17V22" stroke="white" stroke-width="1.5" stroke-linecap="round" stroke-linejoin="round"/>
<path d="M6.98242 6.5C6.98242 7.03043 6.77171 7.53914 6.39664 7.91421C6.02156 8.28929 5.51285 8.5 4.98242 8.5C4.45199 8.5 3.94328 8.28929 3.56821 7.91421C3.19314 7.53914 2.98242 7.03043 2.98242 6.5C2.98242 5.96957 3.19314 5.46086 3.56821 5.08579C3.94328 4.71071 4.45199 4.5 4.98242 4.5C5.51285 4.5 6.02156 4.71071 6.39664 5.08579C6.77171 5.46086 6.98242 5.96957 6.98242 6.5Z" stroke="white" stroke-width="1.5" stroke-linecap="round" stroke-linejoin="round"/>
</svg>
