<svg width="25" height="24" viewBox="0 0 25 24" fill="none" xmlns="http://www.w3.org/2000/svg">
<path fill-rule="evenodd" clip-rule="evenodd" d="M12.7344 2C18.2574 2 22.7344 6.477 22.7344 12C22.7344 17.523 18.2574 22 12.7344 22C7.21138 22 2.73438 17.523 2.73438 12C2.73438 6.477 7.21138 2 12.7344 2ZM12.7344 4C10.6126 4 8.57781 4.84285 7.07752 6.34315C5.57723 7.84344 4.73438 9.87827 4.73438 12C4.73438 14.1217 5.57723 16.1566 7.07752 17.6569C8.57781 19.1571 10.6126 20 12.7344 20C14.8561 20 16.8909 19.1571 18.3912 17.6569C19.8915 16.1566 20.7344 14.1217 20.7344 12C20.7344 9.87827 19.8915 7.84344 18.3912 6.34315C16.8909 4.84285 14.8561 4 12.7344 4ZM11.3204 7.757C11.6744 7.40319 12.1482 7.195 12.6483 7.17352C13.1484 7.15205 13.6383 7.31885 14.0214 7.641L14.1484 7.757L16.9774 10.586C17.3312 10.94 17.5394 11.4139 17.5609 11.9139C17.5823 12.414 17.4155 12.9039 17.0934 13.287L16.9774 13.414L14.1484 16.243C13.7943 16.5968 13.3205 16.805 12.8204 16.8265C12.3204 16.848 11.8304 16.6811 11.4474 16.359L11.3204 16.243L8.49137 13.414C8.13757 13.06 7.92937 12.5861 7.9079 12.0861C7.88642 11.586 8.05323 11.0961 8.37537 10.713L8.49137 10.586L11.3204 7.757ZM12.7344 9.172L9.90637 12L12.7344 14.828L15.5624 12L12.7344 9.172Z" fill="white"/>
</svg>
