<svg width="12" height="12" viewBox="0 0 12 12" fill="none" xmlns="http://www.w3.org/2000/svg">
<path d="M6 9V6M6 6L4.5 7M6 6L7.5 7M6.5 1.50043C6.45225 1.5 6.39864 1.5 6.33736 1.5H4.1001C3.54005 1.5 3.25981 1.5 3.0459 1.60899C2.85774 1.70487 2.70487 1.85774 2.60899 2.0459C2.5 2.25981 2.5 2.54005 2.5 3.1001V8.9001C2.5 9.46015 2.5 9.74003 2.60899 9.95394C2.70487 10.1421 2.85774 10.2952 3.0459 10.3911C3.2596 10.5 3.5395 10.5 4.09847 10.5L7.90155 10.5C8.4605 10.5 8.73999 10.5 8.9537 10.3911C9.14186 10.2952 9.29524 10.1421 9.39111 9.95394C9.5 9.74024 9.5 9.46075 9.5 8.90179V4.66284C9.5 4.60148 9.49999 4.5478 9.49953 4.5M6.5 1.50043C6.64282 1.50173 6.73317 1.50692 6.81942 1.52763C6.92146 1.55213 7.01893 1.59263 7.1084 1.64746C7.20928 1.70928 7.29591 1.79591 7.46875 1.96875L9.03149 3.53149C9.20444 3.70444 9.29043 3.79068 9.35228 3.8916C9.40711 3.98107 9.44767 4.07863 9.47217 4.18066C9.49287 4.26688 9.49817 4.35725 9.49953 4.5M6.5 1.50043V2.9C6.5 3.46005 6.5 3.73988 6.60899 3.9538C6.70487 4.14196 6.85774 4.29524 7.0459 4.39111C7.2596 4.5 7.5395 4.5 8.09846 4.5H9.49953M9.49953 4.5H9.5001" stroke="#024064" stroke-linecap="round" stroke-linejoin="round"/>
</svg>
