<svg width="32" height="32" viewBox="0 0 32 32" fill="none" xmlns="http://www.w3.org/2000/svg">
<rect width="32" height="32" rx="16" fill="#F3F4F8"/>
<path d="M24.8119 21.6955V15.5849C24.8119 14.9964 24.8114 14.702 24.7399 14.4281C24.6765 14.1854 24.5724 13.9558 24.4315 13.7482C24.2725 13.514 24.0515 13.3198 23.6086 12.9323L18.3218 8.30639C17.4995 7.58686 17.0883 7.22727 16.6256 7.09043C16.2179 6.96986 15.7833 6.96986 15.3756 7.09043C14.9132 7.22717 14.5026 7.58641 13.6815 8.30486L8.39304 12.9323C7.95013 13.3198 7.72919 13.514 7.57021 13.7482C7.42933 13.9558 7.32443 14.1854 7.26101 14.4281C7.18945 14.702 7.18945 14.9964 7.18945 15.5849V21.6955C7.18945 22.7218 7.18945 23.2348 7.35713 23.6396C7.5807 24.1794 8.00925 24.6087 8.549 24.8323C8.95381 25 9.46701 25 10.4934 25C11.5198 25 12.0335 25 12.4383 24.8323C12.9781 24.6087 13.4065 24.1795 13.6301 23.6397C13.7978 23.2349 13.7979 22.7217 13.7979 21.6954V20.5939C13.7979 19.3774 14.7841 18.3911 16.0007 18.3911C17.2173 18.3911 18.2035 19.3774 18.2035 20.5939V21.6954C18.2035 22.7217 18.2035 23.2349 18.3712 23.6397C18.5948 24.1795 19.0233 24.6087 19.5631 24.8323C19.9679 25 20.4811 25 21.5074 25C22.5338 25 23.0476 25 23.4524 24.8323C23.9921 24.6087 24.4206 24.1794 24.6442 23.6396C24.8118 23.2348 24.8119 22.7218 24.8119 21.6955Z" stroke="#404252" stroke-width="2" stroke-linecap="round" stroke-linejoin="round"/>
</svg>
