<svg width="28" height="28" viewBox="0 0 28 28" fill="none" xmlns="http://www.w3.org/2000/svg">
<rect width="28" height="28" rx="14" fill="#E1F3D9"/>
<path d="M7.33398 19.3332H8.66732M8.66732 19.3332H12.6673M8.66732 19.3332V13.6346C8.66732 13.2786 8.66732 13.1006 8.71065 12.9346C8.74903 12.7878 8.81215 12.6487 8.89732 12.5232C8.99398 12.3812 9.12798 12.2632 9.39598 12.0292L12.5967 9.2279C13.094 8.79323 13.3427 8.5759 13.622 8.49323C13.8687 8.4199 14.132 8.4199 14.3787 8.49323C14.6587 8.5759 14.908 8.79323 15.4053 9.22923L18.6053 12.0292C18.8733 12.2639 19.0073 12.3812 19.104 12.5226C19.1893 12.6501 19.2515 12.7875 19.2906 12.9346C19.334 13.1006 19.334 13.2786 19.334 13.6346V19.3332M12.6673 19.3332H15.334M12.6673 19.3332V16.6666C12.6673 16.3129 12.8078 15.9738 13.0578 15.7238C13.3079 15.4737 13.647 15.3332 14.0007 15.3332C14.3543 15.3332 14.6934 15.4737 14.9435 15.7238C15.1935 15.9738 15.334 16.3129 15.334 16.6666V19.3332M19.334 19.3332H15.334M19.334 19.3332H20.6673" stroke="#17A086" stroke-width="1.2" stroke-linecap="round" stroke-linejoin="round"/>
</svg>
