<svg width="11" height="11" viewBox="0 0 11 11" fill="none" xmlns="http://www.w3.org/2000/svg">
<path d="M5.5 0C8.2615 0 10.5 2.2385 10.5 5C10.5 7.7615 8.2615 10 5.5 10C2.7385 10 0.5 7.7615 0.5 5C0.5 2.2385 2.7385 0 5.5 0ZM5.1465 3.232L3.732 4.6465C3.63827 4.74026 3.58561 4.86742 3.58561 5C3.58561 5.13258 3.63827 5.25974 3.732 5.3535L5.1465 6.768C5.24026 6.86174 5.36742 6.91439 5.5 6.91439C5.63258 6.91439 5.75974 6.86174 5.8535 6.768L7.268 5.3535C7.36174 5.25974 7.41439 5.13258 7.41439 5C7.41439 4.86742 7.36174 4.74026 7.268 4.6465L5.8535 3.232C5.75974 3.13827 5.63258 3.08561 5.5 3.08561C5.36742 3.08561 5.24026 3.13827 5.1465 3.232Z" fill="black"/>
</svg>
