<svg width="25" height="24" viewBox="0 0 25 24" fill="none" xmlns="http://www.w3.org/2000/svg">
<path d="M7.74609 22V12.398C7.74609 11.33 7.74609 10.796 7.99109 10.348C8.23509 9.89999 8.68409 9.61099 9.58309 9.03299L11.6651 7.69499C12.1901 7.35799 12.4521 7.18899 12.7461 7.18899C13.0401 7.18899 13.3021 7.35799 13.8281 7.69499L15.9091 9.03299C16.8081 9.61099 17.2571 9.89999 17.5011 10.348C17.7461 10.796 17.7461 11.33 17.7461 12.398V22M12.7461 13H12.7551M21.7461 22V16.162C21.7461 13.871 20.4861 13.685 17.7461 13M3.74609 22V16.162C3.74609 13.871 5.00609 13.685 7.74609 13M2.74609 22H22.7461M12.7461 22V18M12.7461 6.99999V4.98199M12.7461 4.98199V2.96999C12.7461 2.49599 12.7461 2.25899 12.8921 2.11199C13.3521 1.64899 15.2461 2.74299 15.9661 3.18699C16.5741 3.56099 16.7461 4.30899 16.7461 4.98199H12.7461Z" stroke="white" stroke-width="1.5" stroke-linecap="round" stroke-linejoin="round"/>
</svg>
