<svg width="31" height="30" viewBox="0 0 31 30" fill="none" xmlns="http://www.w3.org/2000/svg">
<g opacity="0.5">
<path d="M4.25 18.7503V21C4.25 22.4001 4.25 23.0997 4.52248 23.6345C4.76217 24.1049 5.14434 24.4881 5.61475 24.7278C6.149 25 6.84874 25 8.24614 25H26.7502M4.25 18.7503V6.25M4.25 18.7503L9.06675 14.7363L9.07073 14.7331C9.94208 14.007 10.3786 13.6432 10.8519 13.4955C11.4111 13.3209 12.0134 13.3485 12.5544 13.573C13.0131 13.7633 13.4153 14.1655 14.2197 14.9699L14.2278 14.9779C15.0446 15.7948 15.4542 16.2043 15.9202 16.3942C16.4717 16.6188 17.0857 16.6382 17.6509 16.4507C18.1301 16.2918 18.5678 15.9094 19.4429 15.1437L26.75 8.75" stroke="#024064" stroke-width="2" stroke-linecap="round" stroke-linejoin="round"/>
</g>
</svg>
