<svg width="31" height="30" viewBox="0 0 31 30" fill="none" xmlns="http://www.w3.org/2000/svg">
<g opacity="0.5">
<path d="M26.7154 15.8928C26.5445 18.0399 25.7609 20.0928 24.4576 21.8077C23.1544 23.5226 21.3862 24.8273 19.3632 25.5668C17.3403 26.3063 15.1476 26.4496 13.0456 25.9797C10.9436 25.5097 9.02066 24.4462 7.5053 22.9155C5.98994 21.3848 4.94581 19.4513 4.49698 17.3447C4.04814 15.2381 4.21346 13.0469 4.9733 11.0315C5.73313 9.01608 7.05554 7.26113 8.78341 5.97516C10.5113 4.68918 12.572 3.92624 14.7207 3.77696M20.3286 16.8863C20.016 17.6908 19.5079 18.4047 18.8501 18.9634C18.1923 19.5221 17.4056 19.9081 16.5611 20.0864C15.7167 20.2646 14.8411 20.2296 14.0136 19.9844C13.1861 19.7393 12.4327 19.2917 11.8216 18.6822C11.2106 18.0727 10.7611 17.3205 10.5138 16.4936C10.2665 15.6668 10.2292 14.7913 10.4053 13.9464C10.5814 13.1015 10.9653 12.3138 11.5224 11.6545C12.0794 10.9953 12.792 10.4853 13.5957 10.1707M15.4996 14.9997L19.8267 10.6726M19.8267 10.6726L23.2883 11.538L26.75 8.07635L23.2883 7.21093L22.4229 3.74927L18.9612 7.21093L19.8267 10.6726Z" stroke="#024064" stroke-width="2" stroke-linecap="round" stroke-linejoin="round"/>
</g>
</svg>
