<svg width="31" height="30" viewBox="0 0 31 30" fill="none" xmlns="http://www.w3.org/2000/svg">
<g opacity="0.5">
<path d="M12.625 12.9379C12.625 12.9379 13.4688 12.9379 14.3125 14.4375C14.3125 14.4375 16.9923 10.6879 19.375 9.9375M21.4934 18.375L22.2471 21.9863C22.7309 24.306 22.9739 25.4659 22.4755 26.016C21.9783 26.5661 21.1143 26.0936 19.3863 25.1475L16.828 23.7469C16.4196 23.5241 16.216 23.4116 16 23.4116C15.784 23.4116 15.5804 23.5241 15.172 23.7469L12.6138 25.1475C10.8858 26.0925 10.0218 26.5661 9.5245 26.016C9.02725 25.4659 9.26913 24.306 9.75288 21.9863L10.5066 18.375M13.1043 4.94588C14.5195 4.14825 15.226 3.75 16 3.75C16.774 3.75 17.4805 4.14825 18.8958 4.94588L20.8645 6.05513C22.3326 6.882 23.0673 7.296 23.4711 7.98788C23.875 8.67975 23.875 9.5235 23.875 11.211V13.164C23.875 14.8515 23.875 15.6953 23.47 16.3871C23.0673 17.079 22.3338 17.493 20.8645 18.3199L18.8958 19.4291C17.4805 20.2268 16.774 20.625 16 20.625C15.226 20.625 14.5195 20.2268 13.1043 19.4291L11.1355 18.3199C9.66738 17.493 8.93275 17.079 8.52888 16.3871C8.125 15.6953 8.125 14.8515 8.125 13.164V11.211C8.125 9.5235 8.125 8.67975 8.53 7.98788C8.93275 7.296 9.66625 6.882 11.1355 6.05513L13.1043 4.94588Z" stroke="#024064" stroke-width="2" stroke-linecap="round" stroke-linejoin="round"/>
</g>
</svg>
