<svg width="25" height="26" viewBox="0 0 25 26" fill="none" xmlns="http://www.w3.org/2000/svg">
<path d="M23.7154 13.8928C23.5445 16.0399 22.7609 18.0928 21.4576 19.8077C20.1544 21.5226 18.3862 22.8273 16.3632 23.5668C14.3403 24.3063 12.1476 24.4496 10.0456 23.9797C7.94357 23.5097 6.02066 22.4462 4.5053 20.9155C2.98994 19.3848 1.94581 17.4513 1.49698 15.3447C1.04814 13.2381 1.21346 11.0469 1.9733 9.0315C2.73313 7.01608 4.05554 5.26113 5.78341 3.97516C7.51128 2.68918 9.57199 1.92624 11.7207 1.77696M17.3286 14.8863C17.016 15.6908 16.5079 16.4047 15.8501 16.9634C15.1923 17.5221 14.4056 17.9081 13.5611 18.0864C12.7167 18.2646 11.8411 18.2296 11.0136 17.9844C10.1861 17.7393 9.43271 17.2917 8.82165 16.6822C8.21058 16.0727 7.76108 15.3205 7.51378 14.4936C7.26649 13.6668 7.22921 12.7913 7.40531 11.9464C7.58141 11.1015 7.96534 10.3138 8.52237 9.65452C9.07941 8.99528 9.79199 8.48529 10.5957 8.17066M12.4996 12.9997L16.8267 8.6726M16.8267 8.6726L20.2883 9.53802L23.75 6.07635L20.2883 5.21093L19.4229 1.74927L15.9612 5.21093L16.8267 8.6726Z" stroke="#024064" stroke-width="2" stroke-linecap="round" stroke-linejoin="round"/>
</svg>
