<svg width="31" height="30" viewBox="0 0 31 30" fill="none" xmlns="http://www.w3.org/2000/svg">
<path d="M26.5144 22.1193V14.4811C26.5144 13.7455 26.5138 13.3775 26.4244 13.0351C26.3451 12.7318 26.215 12.4447 26.0389 12.1853C25.8402 11.8926 25.5639 11.6498 25.0102 11.1654L18.4018 5.38299C17.3739 4.48357 16.8599 4.03409 16.2815 3.86304C15.7719 3.71232 15.2286 3.71232 14.719 3.86304C14.141 4.03396 13.6278 4.48302 12.6014 5.38107L5.99081 11.1654C5.43717 11.6498 5.161 11.8926 4.96228 12.1853C4.78618 12.4447 4.65505 12.7318 4.57578 13.0351C4.48633 13.3775 4.48633 13.7455 4.48633 14.4811V22.1193C4.48633 23.4023 4.48633 24.0435 4.69593 24.5496C4.97539 25.2242 5.51107 25.7609 6.18576 26.0404C6.69178 26.25 7.33327 26.25 8.61625 26.25C9.89922 26.25 10.5414 26.25 11.0474 26.0404C11.7221 25.7609 12.2577 25.2244 12.5371 24.5497C12.7467 24.0437 12.7469 23.4022 12.7469 22.1192V20.7424C12.7469 19.2217 13.9797 17.9889 15.5004 17.9889C17.0211 17.9889 18.2539 19.2217 18.2539 20.7424V22.1192C18.2539 23.4022 18.2539 24.0437 18.4635 24.5497C18.743 25.2244 19.2786 25.7609 19.9533 26.0404C20.4594 26.25 21.1008 26.25 22.3838 26.25C23.6668 26.25 24.309 26.25 24.815 26.0404C25.4897 25.7609 26.0252 25.2242 26.3047 24.5496C26.5143 24.0435 26.5144 23.4023 26.5144 22.1193Z" stroke="#024064" stroke-width="2" stroke-linecap="round" stroke-linejoin="round"/>
</svg>
