<svg width="24" height="25" viewBox="0 0 24 25" fill="none" xmlns="http://www.w3.org/2000/svg">
<path d="M17 20.399C17 18.7422 14.7614 17.399 12 17.399C9.23858 17.399 7 18.7422 7 20.399M21 17.3994C21 16.1692 19.7659 15.112 18 14.649M3 17.3994C3 16.1692 4.2341 15.112 6 14.649M18 10.6352C18.6137 10.0858 19 9.28755 19 8.39905C19 6.74219 17.6569 5.39905 16 5.39905C15.2316 5.39905 14.5308 5.6879 14 6.16294M6 10.6352C5.38625 10.0858 5 9.28755 5 8.39905C5 6.74219 6.34315 5.39905 8 5.39905C8.76835 5.39905 9.46924 5.6879 10 6.16294M12 14.399C10.3431 14.399 9 13.0559 9 11.399C9 9.74219 10.3431 8.39905 12 8.39905C13.6569 8.39905 15 9.74219 15 11.399C15 13.0559 13.6569 14.399 12 14.399Z" stroke="#282A3A" stroke-width="2" stroke-linecap="round" stroke-linejoin="round"/>
</svg>
