<svg width="16" height="16" viewBox="0 0 16 16" fill="none" xmlns="http://www.w3.org/2000/svg">
<path d="M9.99958 6.66663L7.33291 9.3333L5.99958 7.99996M8.83024 2.30597L9.64424 2.9993C9.84958 3.17397 10.1042 3.2793 10.3722 3.3013L11.4389 3.38663C11.7421 3.41084 12.0267 3.54222 12.2419 3.75722C12.457 3.97222 12.5885 4.2568 12.6129 4.55997L12.6976 5.62663C12.7196 5.8953 12.8256 6.15063 13.0002 6.3553L13.6936 7.16863C13.8912 7.40029 13.9997 7.69481 13.9997 7.9993C13.9997 8.30379 13.8912 8.5983 13.6936 8.82996L13.0002 9.64396C12.8256 9.8493 12.7196 10.104 12.6982 10.3726L12.6129 11.4393C12.5887 11.7425 12.4573 12.0271 12.2423 12.2423C12.0273 12.4574 11.7427 12.5889 11.4396 12.6133L10.3729 12.6986C10.1044 12.7199 9.84937 12.8253 9.64424 13L8.83024 13.6933C8.59858 13.8909 8.30406 13.9994 7.99958 13.9994C7.69509 13.9994 7.40057 13.8909 7.16891 13.6933L6.35558 13C6.15027 12.8252 5.89502 12.7198 5.62624 12.6986L4.55958 12.6133C4.2563 12.5889 3.97164 12.4573 3.75663 12.242C3.54161 12.0267 3.4103 11.7419 3.38624 11.4386L3.30091 10.3726C3.27932 10.1042 3.17364 9.84949 2.99891 9.64463L2.30558 8.82996C2.10833 8.5984 2 8.30415 2 7.99996C2 7.69578 2.10833 7.40153 2.30558 7.16997L2.99891 6.3553C3.17424 6.14997 3.27891 5.8953 3.30024 5.62663L3.38558 4.56063C3.40985 4.25714 3.54151 3.97223 3.75692 3.75706C3.97233 3.5419 4.25739 3.41056 4.56091 3.38663L5.62624 3.30197C5.89487 3.28051 6.14987 3.17483 6.35491 2.99997L7.16891 2.30663C7.40057 2.10903 7.69509 2.00049 7.99958 2.00049C8.30406 2.00049 8.59858 2.10837 8.83024 2.30597Z" stroke="#17A086" stroke-width="1.5" stroke-linecap="round" stroke-linejoin="round"/>
</svg>
